<svg xmlns="http://www.w3.org/2000/svg" viewBox="0 0 32 32">
  <defs>
    <linearGradient id="grad" x1="0%" y1="0%" x2="100%" y2="100%">
      <stop offset="0%" style="stop-color:#6366f1"/>
      <stop offset="100%" style="stop-color:#38bdf8"/>
    </linearGradient>
  </defs>
  <!-- Background circle -->
  <circle cx="16" cy="16" r="15" fill="#0a0a0f" stroke="url(#grad)" stroke-width="1.5"/>
  <!-- Fairy wing left -->
  <path d="M8 16 Q4 12 8 8 Q12 12 10 16 Q12 20 8 24 Q4 20 8 16" fill="url(#grad)" opacity="0.6"/>
  <!-- Fairy wing right -->
  <path d="M24 16 Q28 12 24 8 Q20 12 22 16 Q20 20 24 24 Q28 20 24 16" fill="url(#grad)" opacity="0.6"/>
  <!-- Balance scale beam -->
  <rect x="10" y="15" width="12" height="2" rx="1" fill="url(#grad)"/>
  <!-- Center pillar -->
  <rect x="15" y="14" width="2" height="8" rx="1" fill="url(#grad)"/>
  <!-- Left scale -->
  <circle cx="11" cy="18" r="3" fill="none" stroke="url(#grad)" stroke-width="1.5"/>
  <!-- Right scale -->
  <circle cx="21" cy="18" r="3" fill="none" stroke="url(#grad)" stroke-width="1.5"/>
  <!-- Sparkle top -->
  <path d="M16 4 L17 7 L16 6 L15 7 Z" fill="#38bdf8"/>
  <circle cx="16" cy="5" r="1" fill="#fff" opacity="0.8"/>
</svg>
